<svg width="24" height="25" viewBox="0 0 24 25" fill="none" xmlns="http://www.w3.org/2000/svg">
<path d="M12 11.31C11.7348 11.31 11.4804 11.4154 11.2929 11.6029C11.1054 11.7904 11 12.0448 11 12.31V16.31C11 16.5752 11.1054 16.8296 11.2929 17.0171C11.4804 17.2046 11.7348 17.31 12 17.31C12.2652 17.31 12.5196 17.2046 12.7071 17.0171C12.8946 16.8296 13 16.5752 13 16.31V12.31C13 12.0448 12.8946 11.7904 12.7071 11.6029C12.5196 11.4154 12.2652 11.31 12 11.31ZM12.38 7.39C12.1365 7.28998 11.8635 7.28998 11.62 7.39C11.4973 7.43759 11.3851 7.50896 11.29 7.6C11.2017 7.6972 11.1306 7.80881 11.08 7.93C11.024 8.04868 10.9966 8.17882 11 8.31C10.9992 8.4416 11.0245 8.57207 11.0742 8.6939C11.124 8.81574 11.1973 8.92656 11.29 9.02C11.3872 9.10833 11.4988 9.17936 11.62 9.23C11.7715 9.29224 11.936 9.31631 12.099 9.30011C12.2619 9.28391 12.4184 9.22792 12.5547 9.13707C12.691 9.04622 12.8029 8.92328 12.8805 8.77907C12.9582 8.63486 12.9992 8.47378 13 8.31C12.9963 8.04523 12.8927 7.79163 12.71 7.6C12.6149 7.50896 12.5028 7.43759 12.38 7.39ZM12 2.31C10.0222 2.31 8.08879 2.89649 6.4443 3.9953C4.79981 5.09412 3.51809 6.6559 2.76121 8.48316C2.00433 10.3104 1.8063 12.3211 2.19215 14.2609C2.578 16.2007 3.53041 17.9825 4.92894 19.3811C6.32746 20.7796 8.10929 21.732 10.0491 22.1179C11.9889 22.5037 13.9996 22.3057 15.8268 21.5488C17.6541 20.7919 19.2159 19.5102 20.3147 17.8657C21.4135 16.2212 22 14.2878 22 12.31C22 10.9968 21.7413 9.69642 21.2388 8.48316C20.7363 7.26991 19.9997 6.16752 19.0711 5.23893C18.1425 4.31034 17.0401 3.57375 15.8268 3.0712C14.6136 2.56866 13.3132 2.31 12 2.31V2.31ZM12 20.31C10.4178 20.31 8.87104 19.8408 7.55544 18.9618C6.23985 18.0827 5.21447 16.8333 4.60897 15.3715C4.00347 13.9097 3.84504 12.3011 4.15372 10.7493C4.4624 9.19743 5.22433 7.77196 6.34315 6.65314C7.46197 5.53432 8.88743 4.7724 10.4393 4.46372C11.9911 4.15503 13.5997 4.31346 15.0615 4.91896C16.5233 5.52446 17.7727 6.54984 18.6518 7.86544C19.5308 9.18103 20 10.7277 20 12.31C20 14.4317 19.1572 16.4666 17.6569 17.9669C16.1566 19.4671 14.1217 20.31 12 20.31V20.31Z" fill="black" fill-opacity="0.6"/>
</svg>
